<svg width="48" height="48" viewBox="0 0 48 48" fill="none" xmlns="http://www.w3.org/2000/svg">
<g clip-path="url(#clip0_67_23)">
<path d="M47.1943 21.8504L39.9197 14.5758V6.17233C39.9197 4.65287 38.6884 3.42147 37.1667 3.42147C35.6485 3.42147 34.4172 4.65287 34.4172 6.17233V9.07337L29.0006 3.65663C26.3226 0.980092 21.6665 0.98484 18.9946 3.66148L0.805316 21.8504C-0.268439 22.9263 -0.268439 24.6671 0.805316 25.7414C1.87956 26.817 3.6238 26.817 4.69765 25.7414L22.8852 7.55197C23.4777 6.96258 24.522 6.96258 25.1114 7.55023L43.3021 25.7414C43.8414 26.2792 44.5447 26.5467 45.2477 26.5467C45.9522 26.5467 46.6566 26.2789 47.1944 25.7414C48.2685 24.6672 48.2685 22.9264 47.1943 21.8504Z" fill="#AEAEAE"/>
<path d="M24.9556 12.7738C24.4271 12.2456 23.5715 12.2456 23.0446 12.7738L7.04522 28.7684C6.79262 29.0209 6.64941 29.3656 6.64941 29.7254V41.3913C6.64941 44.1288 8.86901 46.3483 11.6064 46.3483H19.5277V34.0808H28.4707V46.3483H36.3921C39.1294 46.3483 41.349 44.1288 41.349 41.3914V29.7254C41.349 29.3656 41.207 29.0209 40.9532 28.7684L24.9556 12.7738Z" fill="#AEAEAE"/>
</g>
<defs>
<clipPath id="clip0_67_23">
<rect width="48" height="48" fill="white"/>
</clipPath>
</defs>
</svg>
