<svg width="27" height="27" viewBox="0 0 27 27" fill="none" xmlns="http://www.w3.org/2000/svg">
<g clip-path="url(#clip0_67_30)">
<path d="M23.4039 3.56885C21.1025 1.26737 18.0426 0 14.788 0C11.5334 0 8.47351 1.26737 6.17213 3.56885C3.8708 5.87018 2.60333 8.93009 2.60333 12.1847C2.60333 15.2667 3.74055 18.1736 5.81544 20.4277L5.32791 20.9152L5.11407 20.7014C5.01324 20.6005 4.87639 20.5438 4.73375 20.5438C4.5911 20.5438 4.45431 20.6005 4.35343 20.7014L0.43558 24.6192C0.172119 24.8826 0.0270996 25.2328 0.0270996 25.6053C0.0270996 25.9779 0.172172 26.3281 0.43558 26.5915C0.699041 26.8549 1.0492 27 1.42171 27C1.79428 27 2.14449 26.8549 2.4079 26.5915L6.32575 22.6736C6.53579 22.4636 6.53579 22.123 6.32575 21.9129L6.08849 21.6757L6.57718 21.187C8.82662 23.243 11.7206 24.3692 14.788 24.3692C18.0426 24.3692 21.1025 23.1019 23.4038 20.8004C25.7052 18.4991 26.9727 15.4392 26.9727 12.1846C26.9726 8.92999 25.7053 5.87018 23.4039 3.56885ZM1.64726 25.8309C1.58704 25.8912 1.50693 25.9243 1.42171 25.9243C1.33655 25.9243 1.25644 25.8912 1.19622 25.8309C1.136 25.7707 1.10278 25.6906 1.10278 25.6054C1.10278 25.5202 1.13595 25.4401 1.19622 25.3799L4.7337 21.8424L5.18479 22.2935L1.64726 25.8309ZM11.3095 1.63408C10.7244 2.19655 10.1848 2.90598 9.70639 3.7529C8.50489 5.88004 7.81143 8.6564 7.73349 11.6227H3.69314C3.92681 6.95709 7.05248 3.04119 11.3095 1.63408ZM3.69135 12.6984H6.79049C5.55335 13.6173 4.72563 15.0577 4.63535 16.6915C4.08707 15.4614 3.75616 14.114 3.69135 12.6984ZM5.70253 16.9897C5.70253 14.6368 7.61679 12.7225 9.96969 12.7225C12.3226 12.7225 14.2369 14.6368 14.2369 16.9897C14.2369 19.3426 12.3226 21.2569 9.96969 21.2569C7.61679 21.2569 5.70253 19.3427 5.70253 16.9897ZM10.2531 22.3252C10.4578 22.3143 10.6594 22.2917 10.8575 22.2584C11.0064 22.4283 11.1587 22.5877 11.3139 22.7367C10.9518 22.6172 10.5978 22.4799 10.2531 22.3252ZM14.2501 23.1514C13.4728 23.0197 12.7172 22.6031 12.0203 21.9232C12.9105 21.5517 13.6797 20.9464 14.2501 20.1839V23.1514ZM14.2501 13.7955C13.9382 13.3787 13.5669 13.0088 13.1489 12.6983H14.2501V13.7955ZM14.2501 11.6227H8.80943C8.886 8.84087 9.53026 6.25208 10.643 4.28203C11.643 2.51158 12.9076 1.44397 14.2501 1.21806V11.6227ZM25.8828 11.6227H21.8425C21.7645 8.65645 21.0711 5.88004 19.8696 3.75295C19.3912 2.90603 18.8515 2.19665 18.2665 1.63413C22.5236 3.04119 25.6492 6.95709 25.8828 11.6227ZM15.3258 23.1513V1.21806C16.6683 1.44397 17.933 2.51158 18.933 4.28203C20.0458 6.25208 20.69 8.84081 20.7666 11.6227H18.5575C18.2605 11.6227 18.0196 11.8635 18.0196 12.1605C18.0196 12.4575 18.2605 12.6984 18.5575 12.6984H20.7676C20.6972 15.4986 20.0522 18.1059 18.933 20.0874C17.9329 21.8578 16.6683 22.9254 15.3258 23.1513ZM18.2666 22.7352C18.8516 22.1727 19.3912 21.4633 19.8696 20.6163C21.0776 18.4777 21.7719 15.6827 21.8435 12.6983H25.8847C25.6702 17.3852 22.5382 21.3233 18.2666 22.7352Z" fill="#AAAAAA"/>
<path d="M16.8178 11.6228H16.5278C16.2308 11.6228 15.99 11.8636 15.99 12.1606C15.99 12.4576 16.2308 12.6985 16.5278 12.6985H16.8178C17.1148 12.6985 17.3556 12.4576 17.3556 12.1606C17.3556 11.8636 17.1148 11.6228 16.8178 11.6228Z" fill="#AAAAAA"/>
</g>
<defs>
<clipPath id="clip0_67_30">
<rect width="27" height="27" fill="white"/>
</clipPath>
</defs>
</svg>
